
 ######           ######                       
 #     # #  ####  #     # ###### #####  #    # 
 #     # # #    # #     # #      #    # ##  ## 
 ######  # #      ######  #####  #    # # ## # 
 #     # # #  ### #       #      #####  #    # 
 #     # # #    # #       #      #   #  #    # 
 ######  #  ####  #       ###### #    # #    # 
                                               


Plot

Refusing to let anything spoil their romantic weekend break, a young couple
confront a gang of loutish youths with terrifyingly brutal consequences.


General
Complete name : Eden Lake 2008 DVDRip Xvid BigPerm LKRGEL_LKRG.avi
Format : AVI
Format/Info : Audio Video Interleave
Format profile : OpenDML
File size : 1.13 GiB
Duration : 1h 31mn
Overall bit rate : 1 769 Kbps

Video
ID : 0
Format : MPEG-4 Visual
Format profile : Advanced Simple@L5
Format settings, BVOP : Yes
Format settings, QPel : No
Format settings, GMC : No warppoints
Format settings, Matrix : Default (H.263)
Codec ID : XVID
Codec ID/Hint : XviD
Duration : 1h 31mn
Bit rate : 1 315 Kbps
Width : 704 pixels
Height : 396 pixels
Display aspect ratio : 16:9
Frame rate : 23.976 fps
Color space : YUV
Chroma subsampling : 4:2:0
Bit depth : 8 bits
Scan type : Progressive
Compression mode : Lossy
Bits/(Pixel*Frame) : 0.197
Stream size : 857 MiB (74%)
Writing library : XviD 1.2.1 (UTC 2008-12-04)

Audio
ID : 1
Format : AC-3
Format/Info : Audio Coding 3
Mode extension : CM (complete main)
Codec ID : 2000
Duration : 1h 31mn
Bit rate mode : Constant
Bit rate : 448 Kbps
Channel(s) : 6 channels
Channel positions : Front: L C R, Side: L R, LFE
Sampling rate : 48.0 KHz
Bit depth : 16 bits
Compression mode : Lossy
Video delay : 42ms
Stream size : 292 MiB (25%)
Alignment : Split accross interleaves
Interleave, duration : 500 ms (11.99 video frames)
Interleave, preload duration : 500 ms
Language : English





================================== 
http://thepiratebay.org/user/hiest
==================================





Screen Shots:
 
http://leetleech.org/images/67543805579467135067.png
 
http://leetleech.org/images/52111356116486961924.png
 
http://leetleech.org/images/03976835420736857611.png
 
http://leetleech.org/images/44824389791964633014.png


 ######           ######                       
 #     # #  ####  #     # ###### #####  #    # 
 #     # # #    # #     # #      #    # ##  ## 
 ######  # #      ######  #####  #    # # ## # 
 #     # # #  ### #       #      #####  #    # 
 #     # # #    # #       #      #   #  #    # 
 ######  #  ####  #       ###### #    # #    # 
                                               
